<svg width="52" height="52" viewBox="0 0 52 52" fill="none" xmlns="http://www.w3.org/2000/svg">
<path d="M46.9219 4.46875H42.0807V3.04688C42.0807 1.36683 40.7139 0 39.0338 0C37.3538 0 35.9869 1.36683 35.9869 3.04688V4.46875H18.9244V3.04688C18.9244 1.36683 17.5576 0 15.8776 0C14.1975 0 12.8307 1.36683 12.8307 3.04688V4.50633C12.7444 4.48246 12.6539 4.46875 12.5599 4.46875H8.51327C5.7132 4.46875 3.43515 6.7468 3.43515 9.54688V26.8463C3.43515 27.4073 3.88995 27.8619 4.45077 27.8619C5.0116 27.8619 5.4664 27.4073 5.4664 26.8463V14.9297H42.0807C42.6415 14.9297 43.0963 14.475 43.0963 13.9141C43.0963 13.3531 42.6415 12.8984 42.0807 12.8984H5.4664V9.54688C5.4664 7.86683 6.83323 6.5 8.51327 6.5H12.5599C12.6539 6.5 12.7444 6.48619 12.8307 6.46242V7.76953C12.8307 9.44958 14.1975 10.8164 15.8776 10.8164C17.5576 10.8164 18.9244 9.44958 18.9244 7.76953V6.5H35.9869V7.76953C35.9869 9.44958 37.3538 10.8164 39.0338 10.8164C40.7139 10.8164 42.0807 9.44958 42.0807 7.76953V6.5H46.9219C48.6019 6.5 49.9688 7.86683 49.9688 9.54688V48.14C49.9688 49.1483 49.1484 49.9688 48.14 49.9688C47.1316 49.9688 46.3113 49.1483 46.3113 48.14V45.5127C46.3113 44.9518 45.8565 44.4971 45.2957 44.4971H33.4818C32.921 44.4971 32.4662 44.9518 32.4662 45.5127C32.4662 46.0736 32.921 46.5283 33.4818 46.5283H44.28V48.14C44.28 48.8013 44.4474 49.4241 44.7416 49.9688H3.85938C2.85137 49.9688 2.03125 49.1486 2.03125 48.1406V46.5283H24.7635C25.3243 46.5283 25.7791 46.0736 25.7791 45.5127C25.7791 44.9518 25.3243 44.4971 24.7635 44.4971H14.6158C16.3905 42.9687 17.5174 40.7079 17.5174 38.1875C17.5174 33.5954 13.7814 29.8594 9.18927 29.8594C4.59712 29.8594 0.861148 33.5954 0.861148 38.1875C0.861148 40.7079 1.98809 42.9687 3.76279 44.4971H1.01562C0.454797 44.4971 0 44.9518 0 45.5127V48.1406C0 50.2687 1.73134 52 3.85938 52H48.14C50.2684 52 52 50.2685 52 48.14V9.54688C52 6.7468 49.722 4.46875 46.9219 4.46875ZM16.8932 7.76953C16.8932 8.32955 16.4376 8.78516 15.8776 8.78516C15.3176 8.78516 14.8619 8.32955 14.8619 7.76953V3.04688C14.8619 2.48686 15.3176 2.03125 15.8776 2.03125C16.4376 2.03125 16.8932 2.48686 16.8932 3.04688V7.76953ZM40.0494 7.76953C40.0494 8.32955 39.5938 8.78516 39.0338 8.78516C38.4738 8.78516 38.0182 8.32955 38.0182 7.76953V3.04688C38.0182 2.48686 38.4738 2.03125 39.0338 2.03125C39.5938 2.03125 40.0494 2.48686 40.0494 3.04688V7.76953ZM2.8924 38.1875C2.8924 34.7154 5.71716 31.8906 9.18927 31.8906C12.6614 31.8906 15.4861 34.7154 15.4861 38.1875C15.4861 41.6596 12.6614 44.4844 9.18927 44.4844C5.71716 44.4844 2.8924 41.6596 2.8924 38.1875Z" fill="#FFB800"/>
<path d="M47.5624 13.196C47.3736 13.0071 47.1116 12.8984 46.8445 12.8984C46.5773 12.8984 46.3153 13.0071 46.1264 13.196C45.9375 13.3849 45.8289 13.647 45.8289 13.9141C45.8289 14.1812 45.9374 14.4432 46.1264 14.6321C46.3154 14.821 46.5773 14.9297 46.8445 14.9297C47.1116 14.9297 47.3736 14.821 47.5624 14.6321C47.7513 14.4432 47.8601 14.1812 47.8601 13.9141C47.8601 13.647 47.7514 13.3849 47.5624 13.196Z" fill="#FFB800"/>
<path d="M30.3315 44.7941C30.1427 44.6052 29.8806 44.4976 29.6135 44.4976C29.3464 44.4976 29.0844 44.6052 28.8955 44.7941C28.7066 44.984 28.5979 45.2451 28.5979 45.5122C28.5979 45.7803 28.7065 46.0413 28.8955 46.2312C29.0844 46.4201 29.3464 46.5278 29.6135 46.5278C29.8806 46.5278 30.1427 46.4201 30.3315 46.2312C30.5204 46.0413 30.6292 45.7793 30.6292 45.5122C30.6292 45.2451 30.5205 44.984 30.3315 44.7941Z" fill="#FFB800"/>
<path d="M22.9778 30.875C20.8497 30.875 19.1184 32.6063 19.1184 34.7344C19.1184 36.8624 20.8497 38.5938 22.9778 38.5938C25.1058 38.5938 26.8372 36.8624 26.8372 34.7344C26.8372 32.6063 25.1058 30.875 22.9778 30.875ZM22.9778 36.5625C21.9698 36.5625 21.1497 35.7424 21.1497 34.7344C21.1497 33.7264 21.9698 32.9062 22.9778 32.9062C23.9858 32.9062 24.8059 33.7264 24.8059 34.7344C24.8059 35.7424 23.9858 36.5625 22.9778 36.5625Z" fill="#FFB800"/>
<path d="M32.457 30.875C30.329 30.875 28.5977 32.6063 28.5977 34.7344C28.5977 36.8624 30.329 38.5938 32.457 38.5938C34.5851 38.5938 36.3164 36.8624 36.3164 34.7344C36.3164 32.6063 34.5851 30.875 32.457 30.875ZM32.457 36.5625C31.449 36.5625 30.6289 35.7424 30.6289 34.7344C30.6289 33.7264 31.449 32.9062 32.457 32.9062C33.465 32.9062 34.2852 33.7264 34.2852 34.7344C34.2852 35.7424 33.465 36.5625 32.457 36.5625Z" fill="#FFB800"/>
<path d="M41.9363 30.875C39.8082 30.875 38.0769 32.6063 38.0769 34.7344C38.0769 36.8624 39.8082 38.5938 41.9363 38.5938C44.0643 38.5938 45.7957 36.8624 45.7957 34.7344C45.7957 32.6063 44.0643 30.875 41.9363 30.875ZM41.9363 36.5625C40.9283 36.5625 40.1082 35.7424 40.1082 34.7344C40.1082 33.7264 40.9283 32.9062 41.9363 32.9062C42.9443 32.9062 43.7644 33.7264 43.7644 34.7344C43.7644 35.7424 42.9443 36.5625 41.9363 36.5625Z" fill="#FFB800"/>
<path d="M13.4988 20.3125C11.3707 20.3125 9.6394 22.0438 9.6394 24.1719C9.6394 26.2999 11.3707 28.0312 13.4988 28.0312C15.6268 28.0312 17.3582 26.2999 17.3582 24.1719C17.3582 22.0438 15.6268 20.3125 13.4988 20.3125ZM13.4988 26C12.4908 26 11.6707 25.1799 11.6707 24.1719C11.6707 23.1639 12.4908 22.3438 13.4988 22.3438C14.5068 22.3438 15.3269 23.1639 15.3269 24.1719C15.3269 25.1799 14.5068 26 13.4988 26Z" fill="#FFB800"/>
<path d="M32.457 20.3125C30.329 20.3125 28.5977 22.0438 28.5977 24.1719C28.5977 26.2999 30.329 28.0312 32.457 28.0312C34.5851 28.0312 36.3164 26.2999 36.3164 24.1719C36.3164 22.0438 34.5851 20.3125 32.457 20.3125ZM32.457 26C31.449 26 30.6289 25.1799 30.6289 24.1719C30.6289 23.1639 31.449 22.3438 32.457 22.3438C33.465 22.3438 34.2852 23.1639 34.2852 24.1719C34.2852 25.1799 33.465 26 32.457 26Z" fill="#FFB800"/>
<path d="M41.9363 20.3125C39.8082 20.3125 38.0769 22.0438 38.0769 24.1719C38.0769 26.2999 39.8082 28.0312 41.9363 28.0312C44.0643 28.0312 45.7957 26.2999 45.7957 24.1719C45.7957 22.0438 44.0643 20.3125 41.9363 20.3125ZM41.9363 26C40.9283 26 40.1082 25.1799 40.1082 24.1719C40.1082 23.1639 40.9283 22.3438 41.9363 22.3438C42.9443 22.3438 43.7644 23.1639 43.7644 24.1719C43.7644 25.1799 42.9443 26 41.9363 26Z" fill="#FFB800"/>
<path d="M22.9778 20.3125C20.8497 20.3125 19.1184 22.0438 19.1184 24.1719C19.1184 26.2999 20.8497 28.0312 22.9778 28.0312C25.1058 28.0312 26.8372 26.2999 26.8372 24.1719C26.8372 22.0438 25.1058 20.3125 22.9778 20.3125ZM22.9778 26C21.9698 26 21.1497 25.1799 21.1497 24.1719C21.1497 23.1639 21.9698 22.3438 22.9778 22.3438C23.9858 22.3438 24.8059 23.1639 24.8059 24.1719C24.8059 25.1799 23.9858 26 22.9778 26Z" fill="#FFB800"/>
<path d="M12.8072 35.7123C12.4105 35.3157 11.7676 35.3157 11.3708 35.7123L8.06335 39.0199L6.93307 37.8896C6.53636 37.493 5.89347 37.493 5.49667 37.8896C5.10007 38.2862 5.10007 38.9293 5.49667 39.326L7.34521 41.1743C7.53574 41.3648 7.79401 41.4718 8.06335 41.4718C8.3327 41.4718 8.59097 41.3648 8.7815 41.1743L12.8072 37.1486C13.2038 36.752 13.2038 36.1089 12.8072 35.7123Z" fill="#FFB800"/>
</svg>
