<svg width="120" height="146" viewBox="0 0 120 146" fill="none" xmlns="http://www.w3.org/2000/svg">
<path d="M78.5683 29.3608C92.39 32.9605 106.746 38.5394 113.608 51.0662C120.95 64.4704 120.509 81.0609 114.609 95.1597C108.8 109.042 96.9274 119.558 82.7899 124.715C69.3892 129.603 55.2201 126.387 41.7327 121.743C27.3128 116.778 11.3761 111.598 4.77097 97.8515C-1.99831 83.7635 0.707573 66.3697 8.66059 52.9145C15.7215 40.9687 30.1044 37.1741 43.2546 32.7434C54.9042 28.8184 66.6721 26.2626 78.5683 29.3608Z" fill="#FFB800"/>
<path d="M61.2929 51.0938C61.8085 52.125 62.4647 52.9688 63.2616 53.625C64.1054 54.2344 64.9257 54.8672 65.7226 55.5234C66.7069 57.3516 67.3163 59.3906 67.5507 61.6406C67.7851 63.8906 68.0429 66.3516 68.3241 69.0234C68.3241 71.1797 68.1835 73.2188 67.9022 75.1406C67.621 77.0156 67.246 78.8672 66.7772 80.6953C66.3554 82.4766 65.8632 84.2578 65.3007 86.0391C64.7382 87.8203 64.1991 89.6953 63.6835 91.6641C63.0272 92.3672 62.5116 93.375 62.1366 94.6875C61.8085 95.9531 61.7851 97.1953 62.0663 98.4141C61.4569 99.1641 60.8476 99.8906 60.2382 100.594C59.6288 101.297 58.9491 101.953 58.1991 102.562C57.9179 102.281 57.5429 102.117 57.0741 102.07C56.6522 102.07 56.2069 102.07 55.7382 102.07C55.2694 102.117 54.8241 102.164 54.4022 102.211C54.0272 102.305 53.746 102.328 53.5585 102.281C53.3241 101.906 52.996 101.508 52.5741 101.086C52.1991 100.664 51.8476 100.219 51.5194 99.75C51.2382 99.2812 51.0038 98.8359 50.8163 98.4141C50.6757 97.9453 50.7226 97.5 50.9569 97.0781C50.9569 96.5625 50.6757 96.3047 50.1132 96.3047C50.2538 94.1484 50.6054 92.0391 51.1679 89.9766C51.7304 87.8672 52.3632 85.8281 53.0663 83.8594C53.7694 81.8438 54.4491 79.8516 55.1054 77.8828C55.8085 75.9141 56.3241 73.9688 56.6522 72.0469C57.0272 70.125 57.121 68.2031 56.9335 66.2812C56.7929 64.3594 56.2538 62.4141 55.3163 60.4453C55.3163 59.7891 55.2929 59.25 55.246 58.8281C55.246 58.3594 55.2226 57.9609 55.1757 57.6328C55.1757 57.2578 55.1522 56.9062 55.1054 56.5781C55.0585 56.25 54.9647 55.8984 54.8241 55.5234C55.0585 54.8672 55.2226 54.2578 55.3163 53.6953C55.4569 53.1328 55.4569 52.6172 55.3163 52.1484C55.3632 51.8203 55.4569 51.5625 55.5976 51.375C55.7382 51.1406 55.9022 50.9297 56.0897 50.7422C56.2772 50.5078 56.4413 50.2969 56.5819 50.1094C56.7694 49.875 56.8866 49.5938 56.9335 49.2656H58.4804C58.996 49.6875 59.4413 50.0859 59.8163 50.4609C60.1913 50.7891 60.6835 51 61.2929 51.0938Z" fill="#0B0D17"/>
</svg>
