<svg width="120" height="146" viewBox="0 0 120 146" fill="none" xmlns="http://www.w3.org/2000/svg">
<path d="M78.5683 33.3608C92.39 36.9605 106.746 42.5394 113.608 55.0662C120.95 68.4704 120.509 85.0609 114.609 99.1597C108.8 113.042 96.9274 123.558 82.7899 128.715C69.3892 133.603 55.2201 130.387 41.7327 125.743C27.3128 120.778 11.3761 115.598 4.77097 101.851C-1.99831 87.7635 0.707574 70.3697 8.66059 56.9145C15.7215 44.9687 30.1044 41.1741 43.2546 36.7434C54.9041 32.8184 66.6721 30.2626 78.5683 33.3608Z" fill="#FFB800"/>
<path d="M42.6249 54.1875C45.203 53.6719 47.7577 53.1562 50.289 52.6406C52.8202 52.0781 55.3515 51.6094 57.8827 51.2344C60.4608 50.8594 63.0858 50.6016 65.7577 50.4609C68.4296 50.3203 71.2421 50.3906 74.1952 50.6719C75.3671 51.8906 76.3983 53.2266 77.289 54.6797C78.1796 56.0859 79.0233 57.5625 79.8202 59.1094C79.7265 59.4375 79.6561 59.7656 79.6093 60.0938C79.6093 60.4219 79.5624 60.7734 79.4686 61.1484C79.2343 61.7578 78.9061 62.3203 78.4843 62.8359C78.1093 63.3047 77.8046 63.8672 77.5702 64.5234C76.3983 65.1797 75.2733 65.8828 74.1952 66.6328C73.164 67.3828 72.1327 68.1562 71.1015 68.9531C70.2577 69.3281 69.3671 69.6797 68.4296 70.0078C67.539 70.2891 66.8593 70.8516 66.3905 71.6953C67.9374 72.3516 69.2968 73.1484 70.4686 74.0859C71.6405 75.0234 72.6718 76.0781 73.5624 77.25C74.453 78.4219 75.2265 79.6875 75.8827 81.0469C76.539 82.4062 77.1249 83.8125 77.6405 85.2656C77.5468 85.9688 77.4296 86.6953 77.289 87.4453C77.1483 88.1953 77.1483 88.8281 77.289 89.3438C76.9608 90.3281 76.5155 91.125 75.953 91.7344C75.4374 92.2969 74.9218 93.0703 74.4061 94.0547C72.7655 94.7578 71.4296 95.7422 70.3983 97.0078C69.9296 97.0078 69.6952 96.9141 69.6952 96.7266C68.2421 97.7109 66.5546 98.5547 64.6327 99.2578C62.7108 99.9141 60.6483 100.43 58.4452 100.805C56.2421 101.18 53.9218 101.391 51.4843 101.438C49.0468 101.484 46.6093 101.391 44.1718 101.156C43.9843 101.016 43.8202 100.852 43.6796 100.664C43.539 100.477 43.2577 100.406 42.8358 100.453C42.6483 99.9844 42.3905 99.5859 42.0624 99.2578C41.7811 98.8828 41.5468 98.4609 41.3593 97.9922C41.828 97.2422 42.1327 96.375 42.2733 95.3906C42.4608 94.4062 42.6483 93.4688 42.8358 92.5781C43.0702 91.6406 43.3749 90.8203 43.7499 90.1172C44.1249 89.3672 44.7577 88.8281 45.6483 88.5C46.0233 88.4531 46.2343 88.5703 46.2811 88.8516C46.328 89.1328 46.4686 89.3203 46.703 89.4141C48.5311 89.4141 50.3593 89.3906 52.1874 89.3438C54.0155 89.25 55.7499 89.0859 57.3905 88.8516C59.0311 88.5703 60.5546 88.1719 61.9608 87.6562C63.414 87.1406 64.6561 86.4141 65.6874 85.4766C64.2811 84.3516 62.6405 83.5078 60.7655 82.9453C58.8905 82.3359 57.0624 81.75 55.2811 81.1875C53.5468 80.625 51.9999 79.9219 50.6405 79.0781C49.2811 78.1875 48.3905 76.8984 47.9686 75.2109C48.203 74.1328 48.3671 73.1719 48.4608 72.3281C48.5546 71.4844 48.6718 70.7109 48.8124 70.0078C48.953 69.3047 49.164 68.6484 49.4452 68.0391C49.7733 67.3828 50.289 66.75 50.9921 66.1406C50.7577 66 50.4061 65.9766 49.9374 66.0703C49.5155 66.1172 49.0468 66.2344 48.5311 66.4219C48.0155 66.5625 47.4999 66.75 46.9843 66.9844C46.5155 67.1719 46.1171 67.3359 45.789 67.4766C44.8046 67.2422 43.7968 67.1016 42.7655 67.0547C41.7811 66.9609 40.8671 66.6562 40.0233 66.1406C39.9296 65.625 39.8124 65.0625 39.6718 64.4531C39.5311 63.7969 39.4374 63.1406 39.3905 62.4844C39.3436 61.8281 39.3905 61.1719 39.5311 60.5156C39.6718 59.8594 39.9999 59.25 40.5155 58.6875C40.4218 58.3594 40.3515 58.0312 40.3046 57.7031C40.2577 57.375 40.164 57.0938 40.0233 56.8594C40.539 56.4375 41.078 56.0156 41.6405 55.5938C42.2499 55.1719 42.578 54.7031 42.6249 54.1875Z" fill="#0B0D17"/>
</svg>
