<svg width="119" height="146" viewBox="0 0 119 146" fill="none" xmlns="http://www.w3.org/2000/svg">
<path d="M78.0683 33.3608C91.89 36.9605 106.246 42.5394 113.108 55.0662C120.45 68.4704 120.009 85.0609 114.109 99.1597C108.3 113.042 96.4274 123.558 82.2899 128.715C68.8892 133.603 54.7201 130.387 41.2327 125.743C26.8128 120.778 10.8761 115.598 4.27097 101.851C-2.49831 87.7635 0.207574 70.3697 8.16059 56.9145C15.2215 44.9687 29.6044 41.1741 42.7546 36.7434C54.4041 32.8184 66.1721 30.2626 78.0683 33.3608Z" fill="#FFB800"/>
<path d="M85.8241 89.7656C86.9491 90.3281 87.5116 91.0312 87.5116 91.875C87.5585 92.7188 87.3007 93.5156 86.7382 94.2656C86.2226 94.9688 85.5194 95.5078 84.6288 95.8828C83.7851 96.2578 83.0116 96.2344 82.3085 95.8125C82.2147 96.1875 82.0038 96.4453 81.6757 96.5859C81.3944 96.6797 81.2069 96.8906 81.1132 97.2188C76.5663 97.9219 71.9257 98.7891 67.1913 99.8203C62.4569 100.852 57.7226 101.625 52.9882 102.141C49.3319 102 46.2851 101.461 43.8476 100.523C42.8632 99.6797 42.1132 98.625 41.5976 97.3594C41.1288 96.0938 40.8476 94.7578 40.7538 93.3516C40.6601 91.9453 40.7069 90.5859 40.8944 89.2734C41.0819 87.9141 41.3632 86.7422 41.7382 85.7578C44.1757 82.6641 46.7069 79.7109 49.3319 76.8984C52.0038 74.0391 55.0272 71.5078 58.4022 69.3047C59.3866 68.0859 60.5351 67.0547 61.8476 66.2109C63.1601 65.3203 64.3554 64.3359 65.4335 63.2578C64.0272 62.7422 62.5507 62.4844 61.0038 62.4844C59.4569 62.4844 57.9335 62.625 56.4335 62.9062C54.9335 63.1406 53.5272 63.4453 52.2147 63.8203C50.9022 64.1953 49.7538 64.4766 48.7694 64.6641C48.0194 64.2891 47.1288 64.0781 46.0976 64.0312C45.1132 63.9844 44.1288 63.7969 43.1444 63.4688C42.5819 63 42.1835 62.3906 41.9491 61.6406C41.7616 60.8906 41.6444 60.1172 41.5976 59.3203C41.5507 58.5234 41.5272 57.7734 41.5272 57.0703C41.5272 56.3203 41.4335 55.7109 41.246 55.2422C41.621 54.6328 41.9491 54.0234 42.2304 53.4141C42.5585 52.8047 42.9335 52.2422 43.3554 51.7266C45.5585 51.1172 47.996 50.625 50.6679 50.25C53.3397 49.8281 56.0351 49.6406 58.7538 49.6875C61.4726 49.7344 64.0976 50.0859 66.6288 50.7422C69.1601 51.3516 71.4101 52.3828 73.3788 53.8359C73.6132 55.1484 74.1054 56.2031 74.8554 57C75.6054 57.75 76.5194 58.3359 77.5976 58.7578C78.1132 59.6953 78.5585 60.6562 78.9335 61.6406C79.3085 62.5781 79.5663 63.5859 79.7069 64.6641C78.7694 67.1484 77.4335 69.2578 75.6991 70.9922C74.0116 72.6797 72.3007 74.2266 70.5663 75.6328C69.6288 76.4297 68.621 77.1094 67.5429 77.6719C66.4647 78.2344 65.5272 78.8906 64.7304 79.6406C64.5429 79.8281 64.4257 80.0859 64.3788 80.4141C64.3319 80.6953 64.2147 80.9062 64.0272 81.0469C63.1835 81.7969 62.246 82.4766 61.2147 83.0859C60.1835 83.6484 59.246 84.3047 58.4022 85.0547C57.7929 85.5703 57.2772 86.1328 56.8554 86.7422C56.4804 87.3516 55.9647 87.8906 55.3085 88.3594C56.1522 88.6406 56.9726 88.7578 57.7694 88.7109C58.6132 88.6641 59.4569 88.5703 60.3007 88.4297C61.1913 88.2891 62.0819 88.1484 62.9726 88.0078C63.9101 87.8672 64.871 87.8203 65.8554 87.8672C67.2147 87.3984 68.7147 87 70.3554 86.6719C71.996 86.2969 73.6366 86.1562 75.2772 86.25C76.6835 85.6875 78.0194 85.2891 79.2851 85.0547C80.5976 84.7734 81.8397 84.7031 83.0116 84.8438C83.621 85.0781 84.0663 85.5 84.3476 86.1094C84.6757 86.7188 85.1679 87.1406 85.8241 87.375C85.6835 87.8906 85.6366 88.2656 85.6835 88.5C85.7772 88.7344 85.8241 89.1562 85.8241 89.7656Z" fill="#0B0D17"/>
</svg>
