<svg width="52" height="50" viewBox="0 0 52 50" fill="none" xmlns="http://www.w3.org/2000/svg">
<path d="M51.8998 27.402C51.4329 22.7059 49.3349 18.2786 45.992 14.9356C43.1352 12.0789 39.6385 10.2431 35.9593 9.42686V6.84632C37.462 6.47246 38.579 5.11221 38.579 3.49542C38.579 1.59129 37.03 0.0422363 35.1258 0.0422363H27.8132C25.9091 0.0422363 24.36 1.59129 24.36 3.49542C24.36 5.11211 25.477 6.47236 26.9797 6.84632V9.43407C23.3117 10.2538 19.8266 12.087 16.978 14.9357C16.3546 15.5591 15.7797 16.2131 15.2535 16.8927C15.228 16.8908 15.2025 16.8889 15.1765 16.8889H7.93896C7.37812 16.8889 6.92332 17.3436 6.92332 17.9045C6.92332 18.4655 7.37812 18.9202 7.93896 18.9202H13.8715C13.1269 20.1669 12.5264 21.4761 12.0694 22.8239H1.01564C0.454804 22.8239 0 23.2786 0 23.8395C0 24.4005 0.454804 24.8552 1.01564 24.8552H11.4954C11.2027 26.14 11.0347 27.4477 10.9914 28.759H6.5001C5.93926 28.759 5.48446 29.2137 5.48446 29.7746C5.48446 30.3356 5.93926 30.7903 6.5001 30.7903H11.0238C11.1095 32.1049 11.3208 33.4126 11.6579 34.6941H5.0782C4.51737 34.6941 4.06256 35.1488 4.06256 35.7097C4.06256 36.2707 4.51737 36.7254 5.0782 36.7254H12.3061C13.3025 39.361 14.8595 41.8314 16.978 43.9498C20.3241 47.2959 24.7559 49.3945 29.4569 49.8589C30.1279 49.9251 30.7993 49.9579 31.4698 49.9579C35.4331 49.9579 39.3459 48.811 42.6661 46.6489C43.1361 46.3428 43.269 45.7136 42.9629 45.2435C42.6568 44.7735 42.0276 44.6406 41.5576 44.9467C34.29 49.6792 24.5568 48.656 18.4143 42.5135C11.2071 35.3063 11.2071 23.5794 18.4143 16.3721C25.6214 9.16503 37.3483 9.16503 44.5556 16.3721C50.6899 22.5066 51.7188 32.2315 47.0018 39.4955C46.6963 39.966 46.8301 40.5951 47.3004 40.9005C47.7711 41.206 48.4 41.0722 48.7054 40.6018C51.2256 36.7205 52.36 32.0328 51.8998 27.402ZM26.3913 3.49552C26.3913 2.71144 27.0291 2.07362 27.8132 2.07362H35.1258C35.9099 2.07362 36.5477 2.71144 36.5477 3.49552C36.5477 4.27959 35.9099 4.91741 35.1258 4.91741H34.9436H27.9953H27.8132C27.0291 4.91741 26.3913 4.27949 26.3913 3.49552ZM29.011 9.08489V6.9487H33.928V9.08124C32.2952 8.88705 30.6434 8.88827 29.011 9.08489Z" fill="#FFB800"/>
<path d="M45.2742 42.2155C45.006 42.2155 44.745 42.3242 44.5562 42.5131C44.3663 42.702 44.2585 42.964 44.2585 43.2311C44.2585 43.4982 44.3663 43.7603 44.5562 43.9492C44.745 44.1391 45.0061 44.2468 45.2742 44.2468C45.5413 44.2468 45.8023 44.1391 45.9922 43.9492C46.1811 43.7603 46.2898 43.4982 46.2898 43.2311C46.2898 42.964 46.1812 42.702 45.9922 42.5131C45.8023 42.3242 45.5412 42.2155 45.2742 42.2155Z" fill="#FFB800"/>
<path d="M31.485 13.6871C22.7974 13.6871 15.7295 20.7549 15.7295 29.4426C15.7295 38.1303 22.7974 45.1981 31.485 45.1981C40.1726 45.1981 47.2406 38.1303 47.2406 29.4426C47.2406 20.7549 40.1726 13.6871 31.485 13.6871ZM31.485 43.1669C23.9174 43.1669 17.7608 37.0101 17.7608 29.4426C17.7608 21.8751 23.9174 15.7184 31.485 15.7184C39.0527 15.7184 45.2093 21.8751 45.2093 29.4426C45.2093 37.0101 39.0527 43.1669 31.485 43.1669Z" fill="#FFB800"/>
<path d="M37.9096 21.5818L32.8791 26.6121C32.4584 26.4041 31.9852 26.2866 31.485 26.2866C30.9847 26.2866 30.5116 26.4041 30.091 26.6121L27.8396 24.3608C27.4429 23.9641 26.8 23.9641 26.4032 24.3608C26.0066 24.7574 26.0066 25.4005 26.4032 25.7971L28.6545 28.0484C28.4464 28.4691 28.329 28.9423 28.329 29.4425C28.329 31.1827 29.7447 32.5985 31.485 32.5985C33.2253 32.5985 34.641 31.1827 34.641 29.4425C34.641 28.9423 34.5235 28.4691 34.3155 28.0484L39.1983 23.1656L39.3459 23.0181C39.7425 22.6215 39.7425 21.9784 39.3459 21.5818C38.9493 21.1851 38.3064 21.1851 37.9096 21.5818ZM31.485 30.5673C30.8649 30.5673 30.3603 30.0628 30.3603 29.4426C30.3603 28.8225 30.8649 28.3179 31.485 28.3179C32.1052 28.3179 32.6098 28.8225 32.6098 29.4426C32.6098 30.0628 32.1052 30.5673 31.485 30.5673Z" fill="#FFB800"/>
<path d="M42.3441 28.4393H41.4031C40.8422 28.4393 40.3875 28.894 40.3875 29.455C40.3875 30.0159 40.8422 30.4706 41.4031 30.4706H42.3441C42.9049 30.4706 43.3597 30.0159 43.3597 29.455C43.3597 28.894 42.9049 28.4393 42.3441 28.4393Z" fill="#FFB800"/>
<path d="M21.5666 28.4146H20.6257C20.0649 28.4146 19.6101 28.8693 19.6101 29.4302C19.6101 29.9912 20.0649 30.4459 20.6257 30.4459H21.5666C22.1274 30.4459 22.5822 29.9912 22.5822 29.4302C22.5822 28.8693 22.1274 28.4146 21.5666 28.4146Z" fill="#FFB800"/>
<path d="M31.4973 20.54C32.0581 20.54 32.5129 20.0853 32.5129 19.5244V18.5835C32.5129 18.0226 32.0581 17.5679 31.4973 17.5679C30.9365 17.5679 30.4817 18.0226 30.4817 18.5835V19.5244C30.4817 20.0853 30.9365 20.54 31.4973 20.54Z" fill="#FFB800"/>
<path d="M31.4724 38.3452C30.9116 38.3452 30.4568 38.7999 30.4568 39.3608V40.3017C30.4568 40.8626 30.9116 41.3173 31.4724 41.3173C32.0332 41.3173 32.488 40.8626 32.488 40.3017V39.3608C32.488 38.7999 32.0332 38.3452 31.4724 38.3452Z" fill="#FFB800"/>
<path d="M1.01562 34.6937C0.748516 34.6937 0.486484 34.8023 0.297578 34.9912C0.108672 35.1801 0 35.4422 0 35.7093C0 35.9774 0.10857 36.2384 0.297578 36.4273C0.486586 36.6162 0.748516 36.7249 1.01562 36.7249C1.28273 36.7249 1.54477 36.6162 1.73357 36.4273C1.92248 36.2384 2.03125 35.9764 2.03125 35.7093C2.03125 35.4422 1.92258 35.1801 1.73357 34.9912C1.54477 34.8023 1.28273 34.6937 1.01562 34.6937Z" fill="#FFB800"/>
</svg>
