<svg width="52" height="52" viewBox="0 0 52 52" fill="none" xmlns="http://www.w3.org/2000/svg">
<g clip-path="url(#clip0)">
<path d="M10.3599 45.9023C9.79889 45.9023 9.34424 46.3573 9.34424 46.9179V46.9187C9.34424 47.4797 9.79889 47.9343 10.3599 47.9343C10.9208 47.9343 11.3755 47.4789 11.3755 46.9179C11.3755 46.3573 10.9208 45.9023 10.3599 45.9023Z" fill="#FFB800"/>
<path d="M33.7191 24.3714H33.7188C33.1578 24.3714 32.7031 24.8265 32.7031 25.3871C32.7031 25.948 33.1586 26.4031 33.7191 26.4031C34.2801 26.4031 34.7348 25.948 34.7348 25.3871C34.7348 24.8265 34.2801 24.3714 33.7191 24.3714Z" fill="#FFB800"/>
<path d="M32.7039 16.4242C34.384 16.4242 35.7507 15.0574 35.7507 13.3773C35.7507 11.6971 34.384 10.3304 32.7039 10.3304C31.0237 10.3304 29.657 11.6971 29.657 13.3773C29.657 15.0574 31.0237 16.4242 32.7039 16.4242ZM32.7039 12.3617C33.2636 12.3617 33.7195 12.8171 33.7195 13.3773C33.7195 13.9371 33.2636 14.3929 32.7039 14.3929C32.1437 14.3929 31.6882 13.9371 31.6882 13.3773C31.6882 12.8171 32.1437 12.3617 32.7039 12.3617Z" fill="#FFB800"/>
<path d="M16.0013 17.9936C16.158 18.0178 16.3151 18.0297 16.4707 18.0297C16.8924 18.0297 17.3054 17.9405 17.6898 17.7707V31.4812C17.6898 32.0422 18.1445 32.4968 18.7054 32.4968H46.7026C47.2631 32.4968 47.7182 32.0422 47.7182 31.4812V17.7711C48.9949 18.3332 50.5385 17.9563 51.397 16.7856C52.3885 15.4328 52.0949 13.5249 50.7432 12.5343L34.5472 0.617717C33.4824 -0.193593 31.9863 -0.207478 30.9036 0.585979L26.0564 4.15257C25.6049 4.48463 25.5081 5.12059 25.8406 5.57246C26.1731 6.02433 26.8086 6.12074 27.2605 5.78868L32.1061 2.22328C32.4664 1.95906 32.9654 1.96421 33.3189 2.23597C33.3245 2.24034 33.33 2.2443 33.3356 2.24827L49.5408 14.1716C49.9906 14.5012 50.0882 15.1352 49.7586 15.5847C49.4293 16.0342 48.7949 16.1322 48.347 15.8033L33.3058 4.73655C32.948 4.47313 32.46 4.47313 32.1018 4.73655L17.0622 15.8025C16.8444 15.962 16.5774 16.0274 16.3108 15.9862C16.0438 15.9449 15.8089 15.8025 15.649 15.5847C15.4896 15.3669 15.4241 15.0999 15.4653 14.8329C15.5062 14.5659 15.649 14.331 15.868 14.1704L20.7161 10.6038C21.1675 10.2713 21.2643 9.63575 20.9323 9.18388C20.5998 8.73161 19.9639 8.63521 19.5124 8.96766L14.6659 12.5335C14.0105 13.0139 13.5813 13.7205 13.4575 14.5238C13.3337 15.3268 13.5305 16.1302 14.0105 16.7856C14.4914 17.441 15.198 17.8699 16.0013 17.9936ZM27.6255 26.4027H23.7836V22.3406H27.6255V26.4027ZM29.6571 20.3089H35.7509V30.4656H29.6571V20.3089ZM37.7821 22.3406H41.624V26.4027H37.7821V22.3406ZM32.704 6.81581L45.6869 16.3678V30.4656H37.7821V28.4343H42.6397C43.2006 28.4343 43.6553 27.9793 43.6553 27.4187V21.325C43.6553 20.764 43.2006 20.3093 42.6397 20.3093H37.7821C37.7821 19.1894 36.8708 18.2781 35.7509 18.2781H29.6571C28.5368 18.2781 27.6255 19.1894 27.6255 20.3093H22.7679C22.2074 20.3093 21.7523 20.764 21.7523 21.325V27.4187C21.7523 27.9793 22.2074 28.4343 22.7679 28.4343H27.6255V30.4656H19.7211V16.3682L32.704 6.81581Z" fill="#FFB800"/>
<path d="M23.3868 8.39397C23.599 8.39397 23.8129 8.32772 23.9954 8.19085L23.9962 8.19045C24.4449 7.85363 24.5353 7.21727 24.1989 6.76857C23.8625 6.31987 23.2253 6.22942 22.7766 6.56585C22.3279 6.90227 22.2371 7.53902 22.5735 7.98772C22.773 8.25353 23.0781 8.39397 23.3868 8.39397Z" fill="#FFB800"/>
<path d="M51.8536 37.5436C51.4148 36.1801 49.9073 34.9752 47.6336 35.552C47.6277 35.5536 47.6221 35.5552 47.6161 35.5568L38.3204 38.0915C38.1554 37.4274 37.7753 36.8406 37.2258 36.4129C36.5811 35.9115 35.7821 35.6909 34.9776 35.7917C34.4341 35.8599 32.9681 36.0729 31.4165 36.2979C29.9439 36.5117 28.4208 36.7327 27.8976 36.7986C26.6971 36.9489 25.2851 36.3804 23.7898 35.7782C21.4194 34.8236 18.5534 33.67 15.4383 35.0518V34.7312C15.4383 34.1702 14.9832 33.7156 14.4227 33.7156H6.29688C5.7363 33.7156 5.28125 34.1702 5.28125 34.7312H1.01562C0.454651 34.7312 0 35.1859 0 35.7468C0 36.3078 0.454651 36.7625 1.01562 36.7625H5.28125V48.9503H1.01562C0.454651 48.9503 0 49.405 0 49.966C0 50.5269 0.454651 50.9816 1.01562 50.9816H5.28125C5.28125 51.5426 5.7363 51.9972 6.29688 51.9972H14.4223C14.9832 51.9972 15.4379 51.5426 15.4379 50.9816V49.9211L16.7931 49.9299H16.7995C17.3573 49.9299 17.8115 49.4792 17.8151 48.9206C17.8187 48.3596 17.3668 47.9022 16.8058 47.8986L15.4379 47.8899V37.3528C18.0968 35.6778 20.497 36.6422 23.0309 37.6626C24.7007 38.3351 26.4277 39.0305 28.1507 38.8139C28.6934 38.7457 30.1577 38.5331 31.7081 38.3081C33.182 38.0943 34.7062 37.8733 35.2303 37.807C35.4961 37.7741 35.7619 37.8479 35.9777 38.0157C36.1983 38.1875 36.3383 38.4339 36.3729 38.71C36.3951 38.8897 36.4542 39.3678 35.1815 39.9581C32.4869 41.2078 29.6158 42.2774 27.304 42.8927C26.7617 43.0371 26.4396 43.5933 26.5836 44.1353C26.728 44.6776 27.2842 45.0001 27.8265 44.8557C30.247 44.2114 33.2395 43.0982 36.036 41.8009C37.0088 41.3498 37.6067 40.825 37.9594 40.2957L48.1414 37.519C49.2122 37.25 49.7621 37.6761 49.9196 38.1653C50.0743 38.6473 49.8878 39.2678 49.1217 39.5701C48.3251 39.8736 46.422 40.7115 44.0139 41.7711C40.8238 43.1752 36.8537 44.9224 33.6882 46.2066C29.9256 47.7324 28.7803 47.9597 24.9272 47.949C24.9265 47.949 24.9253 47.949 24.9245 47.949C24.3647 47.949 23.9104 48.4017 23.9088 48.9615C23.9069 49.5224 24.3603 49.9787 24.9213 49.9803C25.0046 49.9803 25.0867 49.9807 25.1677 49.9807C29.0893 49.9807 30.5366 49.6768 34.4515 48.0887C37.6448 46.7933 41.6299 45.0394 44.8319 43.6302C47.1246 42.6213 49.1043 41.7501 49.8493 41.4665C49.8525 41.4653 49.8557 41.4641 49.8589 41.4629C51.7564 40.719 52.2987 38.9282 51.8536 37.5436ZM7.3129 49.966V35.7468H13.4066V48.8912V48.8928V48.8952V49.966H7.3129Z" fill="#FFB800"/>
<path d="M20.8625 47.924H20.8617C20.3007 47.924 19.8464 48.3787 19.8464 48.9396C19.8464 49.5006 20.3015 49.9553 20.8625 49.9553C21.4234 49.9553 21.8781 49.5006 21.8781 48.9396C21.8781 48.3787 21.4234 47.924 20.8625 47.924Z" fill="#FFB800"/>
</g>
<defs>
<clipPath id="clip0">
<rect width="52" height="52" fill="white"/>
</clipPath>
</defs>
</svg>
