<svg width="52" height="52" viewBox="0 0 52 52" fill="none" xmlns="http://www.w3.org/2000/svg">
<g clip-path="url(#clip0)">
<path d="M40.6251 27.2604V20.6247L41.0389 20.9294C41.2559 21.0889 41.5281 21.1559 41.7943 21.1151C42.0609 21.0742 42.3001 20.929 42.4596 20.7116L44.8558 17.4426C45.1871 16.9907 45.0899 16.3559 44.6388 16.0239L23.1282 0.197571C22.7703 -0.0658569 22.2824 -0.0658569 21.9245 0.197571L14.441 5.70377C13.9891 6.03583 13.8923 6.67178 14.2248 7.12366C14.5573 7.57513 15.1932 7.67194 15.6447 7.33948L22.5263 2.27643L42.6183 17.0593L41.4229 18.6903L23.1282 5.22968C22.7703 4.96625 22.2824 4.96625 21.9245 5.22968L3.62977 18.6903L2.43403 17.0593L9.10026 12.155C9.55213 11.8225 9.64893 11.1866 9.31647 10.7351C8.98402 10.2832 8.34806 10.1864 7.89658 10.5189L0.413886 16.0243C-0.037194 16.3563 -0.134392 16.9907 0.196876 17.4426L2.59312 20.712C2.7522 20.9294 2.99183 21.0742 3.25843 21.1155C3.30961 21.123 3.36079 21.127 3.41196 21.127C3.62739 21.127 3.83845 21.0583 4.0142 20.9294L4.42759 20.6251V37.5781C4.42759 38.1387 4.88264 38.5938 5.44321 38.5938H27.2609C27.2327 38.9306 27.2185 39.2694 27.2185 39.609C27.2185 46.4414 32.777 52 39.6095 52C46.4415 52 52.0001 46.4414 52.0001 39.609C52.0001 33.1189 46.9839 27.7785 40.6251 27.2604ZM17.6533 36.5625V22.3438H27.3994V36.5625H17.6533ZM39.6095 49.9688C33.897 49.9688 29.2497 45.3215 29.2497 39.609C29.2497 37.2365 30.0725 34.9181 31.5666 33.0804C31.9205 32.6448 31.8542 32.0053 31.4194 31.6514C30.9842 31.2979 30.3443 31.3638 29.9904 31.799C29.794 32.0406 29.6076 32.2901 29.4306 32.5452V22.3438C29.4306 21.2238 28.5193 20.3125 27.3994 20.3125H17.6533C16.5334 20.3125 15.6221 21.2238 15.6221 22.3438V36.5625H6.45884V19.1302L22.5263 7.30853L38.5938 19.1302V27.2604C38.2788 27.2862 37.9654 27.3231 37.6548 27.3723C37.101 27.4604 36.7233 27.9805 36.811 28.5347C36.8986 29.0885 37.4179 29.4662 37.973 29.3785C38.5125 29.2928 39.0628 29.2496 39.6091 29.2496C45.3216 29.2496 49.9688 33.8969 49.9688 39.609C49.9688 45.3215 45.3216 49.9688 39.6095 49.9688Z" fill="#FFB800"/>
<path d="M25.3677 28.4375H25.3673C24.8063 28.4375 24.3521 28.8922 24.3521 29.4531C24.3521 30.0137 24.8067 30.4688 25.3677 30.4688C25.9286 30.4688 26.3833 30.0137 26.3833 29.4531C26.3833 28.8922 25.9286 28.4375 25.3677 28.4375Z" fill="#FFB800"/>
<path d="M11.771 9.94517C11.9872 9.94517 12.205 9.87654 12.3895 9.73451L12.3903 9.73411C12.8346 9.39213 12.9175 8.75459 12.5755 8.30986C12.2336 7.86552 11.596 7.78261 11.1513 8.12459C10.7066 8.46657 10.6233 9.10411 10.9652 9.54844C11.1652 9.8087 11.4667 9.94517 11.771 9.94517Z" fill="#FFB800"/>
<path d="M33.4175 28.8763L33.4171 28.8767C32.93 29.1548 32.7609 29.7749 33.0395 30.2621C33.2267 30.5902 33.5695 30.7738 33.9222 30.7738C34.0932 30.7738 34.2661 30.7306 34.4252 30.6397C34.9124 30.3616 35.0814 29.7412 34.8033 29.254C34.5252 28.7672 33.9047 28.5982 33.4175 28.8763Z" fill="#FFB800"/>
<path d="M40.3358 36.9846C40.7325 37.381 41.3752 37.381 41.7723 36.9846C42.1686 36.5879 42.1686 35.9448 41.7723 35.5481C41.441 35.2172 41.0451 34.9899 40.625 34.8665V34.5309C40.625 33.9703 40.1699 33.5152 39.6093 33.5152C39.0484 33.5152 38.5937 33.9703 38.5937 34.5309V35.0672C38.3589 35.191 38.1391 35.3509 37.9419 35.5481C36.8858 36.6038 36.8858 38.322 37.9419 39.3781L39.8398 41.276C39.968 41.4042 40.0382 41.5744 40.0382 41.7549C40.0382 41.9358 39.968 42.106 39.8398 42.2337C39.7121 42.3619 39.5419 42.4321 39.361 42.4321C39.1805 42.4321 39.0103 42.3619 38.8825 42.2337C38.4858 41.8374 37.8427 41.8374 37.446 42.2337C37.0493 42.6305 37.0493 43.2736 37.446 43.6703C37.7769 44.0012 38.1732 44.2281 38.5933 44.3519V44.6871C38.5933 45.2481 39.0484 45.7027 39.6089 45.7027C40.1699 45.7027 40.6246 45.2481 40.6246 44.6871V44.1507C40.859 44.0269 41.0792 43.8671 41.276 43.6699C42.3321 42.6142 42.3321 40.896 41.276 39.8399L39.3781 37.9419C39.1142 37.6777 39.1142 37.2484 39.3781 36.9842C39.6423 36.7204 40.0719 36.7204 40.3358 36.9846Z" fill="#FFB800"/>
</g>
<defs>
<clipPath id="clip0">
<rect width="52" height="52" fill="white"/>
</clipPath>
</defs>
</svg>
